<?xml version="1.0" encoding="utf-8"?>
<!-- Generator: Adobe Illustrator 22.1.0, SVG Export Plug-In . SVG Version: 6.00 Build 0)  -->
<svg version="1.1" id="Layer_1" xmlns="http://www.w3.org/2000/svg" xmlns:xlink="http://www.w3.org/1999/xlink" x="0px" y="0px"
	 viewBox="0 0 1242 2208" style="enable-background:new 0 0 1242 2208;" xml:space="preserve">
<style type="text/css">
	.st0{fill:url(#SVGID_1_);}
	.st1{fill:url(#SVGID_2_);}
	.st2{fill:url(#SVGID_3_);}
	.st3{fill:url(#SVGID_4_);}
	.st4{fill:url(#SVGID_5_);}
	.st5{fill:url(#SVGID_6_);}
	.st6{fill:url(#SVGID_7_);}
	.st7{fill:url(#SVGID_8_);}
	.st8{fill:url(#SVGID_9_);}
	.st9{fill:url(#SVGID_10_);}
	.st10{fill:url(#SVGID_11_);}
	.st11{fill:url(#SVGID_12_);}
	.st12{fill:url(#SVGID_13_);}
	.st13{fill:url(#SVGID_14_);}
	.st14{fill:url(#SVGID_15_);}
	.st15{fill:url(#SVGID_16_);}
	.st16{fill:url(#SVGID_17_);}
	.st17{fill:url(#SVGID_18_);}
	.st18{fill:url(#SVGID_19_);}
	.st19{fill:url(#SVGID_20_);}
	.st20{fill:url(#SVGID_21_);}
</style>
<g>
	<g>
		<g>
			<linearGradient id="SVGID_1_" gradientUnits="userSpaceOnUse" x1="374.0932" y1="685.0846" x2="374.0932" y2="820.5682">
				<stop  offset="0" style="stop-color:#098CCD"/>
				<stop  offset="1" style="stop-color:#00998F"/>
			</linearGradient>
			<path class="st0" d="M304.2,685.1h25.1v111.1h32.3V685.1h25.1v111.1h32.3V685.1H444v135.5H304.2V685.1z"/>
			<linearGradient id="SVGID_2_" gradientUnits="userSpaceOnUse" x1="514.1576" y1="685.0846" x2="514.1576" y2="820.5682">
				<stop  offset="0" style="stop-color:#098CCD"/>
				<stop  offset="1" style="stop-color:#00998F"/>
			</linearGradient>
			<path class="st1" d="M490.6,685.1v58.7l42.2-58.7h30.1l-51.1,66.6l51.1,68.9h-30.1l-42.2-59.4v59.4h-25.1V685.1H490.6z"/>
			<linearGradient id="SVGID_3_" gradientUnits="userSpaceOnUse" x1="626.2636" y1="682.5221" x2="626.2636" y2="823.8674">
				<stop  offset="0" style="stop-color:#098CCD"/>
				<stop  offset="1" style="stop-color:#00998F"/>
			</linearGradient>
			<path class="st2" d="M626.3,823.9c-38.5,0-70.6-31.2-70.6-70.4c0-39.4,31.5-70.9,70.6-70.9c39.1,0,70.6,31.5,70.6,70.9
				C696.8,792.7,664.8,823.9,626.3,823.9z M626.3,799.5c24.8,0,45.5-21.4,45.5-46.6c0-25.5-20.2-46-45.5-46
				c-25.3,0-45.5,20.5-45.5,46C580.8,778,601.5,799.5,626.3,799.5z"/>
			<linearGradient id="SVGID_4_" gradientUnits="userSpaceOnUse" x1="751.2087" y1="685.0846" x2="751.2087" y2="820.5682">
				<stop  offset="0" style="stop-color:#098CCD"/>
				<stop  offset="1" style="stop-color:#00998F"/>
			</linearGradient>
			<path class="st3" d="M804.8,820.6h-25.1V709.5h-24.9l-30.6,111.1h-26.6L737,685.1h67.8V820.6z"/>
			<linearGradient id="SVGID_5_" gradientUnits="userSpaceOnUse" x1="881.4644" y1="685.0846" x2="881.4644" y2="820.5682">
				<stop  offset="0" style="stop-color:#098CCD"/>
				<stop  offset="1" style="stop-color:#00998F"/>
			</linearGradient>
			<path class="st4" d="M891,685.1l57,135.5h-27.7l-14.7-35h-48l-15,35h-27.7l56.5-135.5H891z M881.3,720.1l-14.5,41.1h29
				L881.3,720.1z"/>
		</g>
		<g>
			<linearGradient id="SVGID_6_" gradientUnits="userSpaceOnUse" x1="331.8132" y1="856.4954" x2="331.8132" y2="996.0645">
				<stop  offset="0" style="stop-color:#3FB873"/>
				<stop  offset="1" style="stop-color:#7CBA54"/>
			</linearGradient>
			<path class="st5" d="M292.8,881.6v-25.1h78v25.1h-26.1v114.5h-25.9V881.6H292.8z"/>
			<linearGradient id="SVGID_7_" gradientUnits="userSpaceOnUse" x1="427.8581" y1="856.4954" x2="427.8581" y2="996.0645">
				<stop  offset="0" style="stop-color:#3FB873"/>
				<stop  offset="1" style="stop-color:#7CBA54"/>
			</linearGradient>
			<path class="st6" d="M437.7,856.5l58.7,139.6h-28.5L452.8,960h-49.5l-15.5,36.1h-28.5l58.2-139.6H437.7z M427.7,892.6l-14.9,42.3
				h29.8L427.7,892.6z"/>
			<linearGradient id="SVGID_8_" gradientUnits="userSpaceOnUse" x1="561.9491" y1="856.4954" x2="561.9491" y2="996.0645">
				<stop  offset="0" style="stop-color:#3FB873"/>
				<stop  offset="1" style="stop-color:#7CBA54"/>
			</linearGradient>
			<path class="st7" d="M536.5,856.5v55.9h51v-55.9h25.9v139.6h-25.9v-58.6h-51v58.6h-25.9V856.5H536.5z"/>
			<linearGradient id="SVGID_9_" gradientUnits="userSpaceOnUse" x1="695.0091" y1="856.4954" x2="695.0091" y2="1013.6334">
				<stop  offset="0" style="stop-color:#3FB873"/>
				<stop  offset="1" style="stop-color:#7CBA54"/>
			</linearGradient>
			<path class="st8" d="M639,996.1V856.5h25.9v114.4h50.8V856.5h25.9v114.4h9.4v42.7h-25.9v-17.6H639z"/>
			<linearGradient id="SVGID_10_" gradientUnits="userSpaceOnUse" x1="804.9248" y1="856.4954" x2="804.9248" y2="996.0645">
				<stop  offset="0" style="stop-color:#3FB873"/>
				<stop  offset="1" style="stop-color:#7CBA54"/>
			</linearGradient>
			<path class="st9" d="M842.4,856.5v25.1h-49.1v32.1h47v25.1h-47v32.1h49.1v25.1h-75V856.5H842.4z"/>
			<linearGradient id="SVGID_11_" gradientUnits="userSpaceOnUse" x1="910.9832" y1="856.48" x2="910.9832" y2="996.0645">
				<stop  offset="0" style="stop-color:#3FB873"/>
				<stop  offset="1" style="stop-color:#7CBA54"/>
			</linearGradient>
			<path class="st10" d="M891,856.5c12.7,0,25.5-0.6,37.2,5.3c11.5,5.9,19.6,18.3,19.6,31.3c0,11-5.1,21.7-15.3,26.6
				c15.3,4.9,23.8,17.9,23.8,33.8c0,13.6-6.2,25.1-17,33.2c-11.1,8.1-25.3,8.9-38.7,9.3h-35V856.5H891z M914,908
				c4.9-2.3,7.9-7.6,7.9-12.8c0-5.7-3.6-10.2-8.7-12.3c-4.9-2.3-11.5-1.3-17-1.3h-4.7v28.5h4.9C901.9,910.1,909.1,910.3,914,908z
				 M923.6,966c4.7-3.2,6.8-7.7,6.8-13.6c0-6.8-3.2-11-9.2-14.4c-5.9-3-12.1-2.8-18.3-2.8h-11.3v35.7h10.8
				C909.8,970.9,916.8,970.6,923.6,966z"/>
		</g>
		<g>
			<linearGradient id="SVGID_12_" gradientUnits="userSpaceOnUse" x1="411.1864" y1="1031.4928" x2="411.1864" y2="1366.141">
				<stop  offset="0" style="stop-color:#FFC525"/>
				<stop  offset="1" style="stop-color:#FDBD70"/>
			</linearGradient>
			<path class="st11" d="M484.1,1091.7H366.4v66.6h12.2c33.1,0,72-1.8,99.6,20.4c26.3,20.8,39.8,52.5,39.8,85.6
				c0,33.5-16.8,65.7-44.4,84.2c-28.1,19-58.4,17.7-90.6,17.7h-78.8v-334.6h179.8V1091.7z M366.4,1218.5v87.4h11.3
				c13.6,0,32.6,0.9,46.2-2.7c18.6-5,32.2-19.5,32.2-39.8c0-19.5-12.2-35.3-30.3-41.2c-14.9-4.5-32.6-3.6-48-3.6H366.4z"/>
			<linearGradient id="SVGID_13_" gradientUnits="userSpaceOnUse" x1="629.6669" y1="1031.4928" x2="629.6669" y2="1366.1199">
				<stop  offset="0" style="stop-color:#FFC525"/>
				<stop  offset="1" style="stop-color:#FDBD70"/>
			</linearGradient>
			<path class="st12" d="M719.6,1031.5v60.2H601.8v77h112.8v60.2H601.8v77h117.7v60.2H539.8v-334.6H719.6z"/>
			<linearGradient id="SVGID_14_" gradientUnits="userSpaceOnUse" x1="850.4117" y1="1025.1477" x2="850.4117" y2="1374.2671">
				<stop  offset="0" style="stop-color:#FFC525"/>
				<stop  offset="1" style="stop-color:#FDBD70"/>
			</linearGradient>
			<path class="st13" d="M959.1,1268.3c0,60.7-48.9,105.9-109.1,105.9c-57,0-108.2-43.9-108.2-102.3h64.7
				c0,26.7,21.7,42.1,46.6,42.1c23.5,0,43.5-17.7,43.5-42.1c0-31.7-20.8-51.6-48.9-51.6h-28.5v-60.2h24.9
				c22.2,0,41.7-14.9,41.2-39.4c0.4-19.9-14.5-35.3-34.9-35.3c-19.5,0-34.9,14-35.8,34.9h-62.9c-0.5-52.5,46.2-95.1,97.8-95.1
				c53.4,0,98.7,40.3,98.7,95.1c0,24.9-13.6,49.4-31.7,67.5C939.6,1202.2,959.1,1233.4,959.1,1268.3z"/>
		</g>
		<g>
			<linearGradient id="SVGID_15_" gradientUnits="userSpaceOnUse" x1="352.5623" y1="1401.6154" x2="352.5623" y2="1532.6345">
				<stop  offset="0" style="stop-color:#E92447"/>
				<stop  offset="1" style="stop-color:#D21B67"/>
			</linearGradient>
			<path class="st14" d="M400.8,1401.6v131h-24.3v-107.4h-47.9v107.4h-24.3v-131H400.8z"/>
			<linearGradient id="SVGID_16_" gradientUnits="userSpaceOnUse" x1="463.1896" y1="1401.6069" x2="463.1896" y2="1532.6345">
				<stop  offset="0" style="stop-color:#E92447"/>
				<stop  offset="1" style="stop-color:#D21B67"/>
			</linearGradient>
			<path class="st15" d="M421.3,1401.6h30.8c12.6,0,24.5-0.5,35.5,6.9c10.8,7.3,17.4,19.9,17.4,33c0,12.9-5.3,25.4-15.6,33.5
				c-10.8,8.7-26.1,8-39,8h-4.8v49.6h-24.3V1401.6z M468.9,1458c7.1-2.3,11.9-8.5,11.9-16.1c0-8-5.3-13.6-12.6-15.6
				c-5.3-1.4-12.8-1.1-18.1-1.1h-4.4v34.2h4.4C456.1,1459.4,463,1459.8,468.9,1458z"/>
			<linearGradient id="SVGID_17_" gradientUnits="userSpaceOnUse" x1="554.3155" y1="1401.6154" x2="554.3155" y2="1532.6345">
				<stop  offset="0" style="stop-color:#E92447"/>
				<stop  offset="1" style="stop-color:#D21B67"/>
			</linearGradient>
			<path class="st16" d="M563.5,1401.6l55.1,131h-26.8l-14.2-33.9h-46.5l-14.5,33.9H490l54.6-131H563.5z M554.1,1435.5l-14,39.7h28
				L554.1,1435.5z"/>
			<linearGradient id="SVGID_18_" gradientUnits="userSpaceOnUse" x1="670.9718" y1="1401.6011" x2="670.9718" y2="1532.6345">
				<stop  offset="0" style="stop-color:#E92447"/>
				<stop  offset="1" style="stop-color:#D21B67"/>
			</linearGradient>
			<path class="st17" d="M652.2,1401.6c11.9,0,23.9-0.5,34.9,5c10.8,5.5,18.4,17.2,18.4,29.4c0,10.3-4.8,20.4-14.4,25
				c14.4,4.6,22.3,16.8,22.3,31.7c0,12.8-5.9,23.6-16,31.2c-10.5,7.6-23.8,8.3-36.3,8.7h-32.8v-131H652.2z M673.8,1450
				c4.6-2.1,7.4-7.1,7.4-12.1c0-5.3-3.4-9.6-8.2-11.5c-4.6-2.1-10.8-1.3-16-1.3h-4.4v26.8h4.6C662.5,1452,669.2,1452.1,673.8,1450z
				 M682.9,1504.4c4.4-3,6.4-7.3,6.4-12.8c0-6.4-3-10.3-8.7-13.5c-5.5-2.8-11.3-2.7-17.2-2.7h-10.6v33.5h10.1
				C669.9,1509.1,676.5,1508.7,682.9,1504.4z"/>
			<linearGradient id="SVGID_19_" gradientUnits="userSpaceOnUse" x1="781.2342" y1="1401.6154" x2="781.2342" y2="1532.6345">
				<stop  offset="0" style="stop-color:#E92447"/>
				<stop  offset="1" style="stop-color:#D21B67"/>
			</linearGradient>
			<path class="st18" d="M834.8,1532.6h-24.3v-95.4l-55.8,95.4h-27v-131H752v95.7l55.5-95.7h27.3V1532.6z"/>
			<linearGradient id="SVGID_20_" gradientUnits="userSpaceOnUse" x1="896.3859" y1="1401.6154" x2="896.3859" y2="1532.6345">
				<stop  offset="0" style="stop-color:#E92447"/>
				<stop  offset="1" style="stop-color:#D21B67"/>
			</linearGradient>
			<path class="st19" d="M948.2,1532.6H924v-107.4h-24.1l-29.6,107.4h-25.7l38.1-131h65.6V1532.6z"/>
		</g>
	</g>
	<g>
		<linearGradient id="SVGID_21_" gradientUnits="userSpaceOnUse" x1="926.8434" y1="696.5391" x2="969.1904" y2="696.5391">
			<stop  offset="0" style="stop-color:#098CCD"/>
			<stop  offset="1" style="stop-color:#00998F"/>
		</linearGradient>
		<path class="st20" d="M948,675.4c11.6,0,21.1,9.4,21.1,21.1c0,11.8-9.5,21.2-21.1,21.2c-11.8,0-21.2-9.4-21.2-21.2
			C926.8,684.8,936.3,675.4,948,675.4z M948,679.3c-9.6,0-17.2,7.7-17.2,17.2c0,9.6,7.7,17.2,17.2,17.2c9.4,0,17.2-7.7,17.2-17.2
			C965.2,687,957.5,679.3,948,679.3z M953.4,708l-5.1-9.7h-4.5v9.7h-4.4v-22.8h11c2,0,4.5,0.1,6.2,1.1c2,1.4,2.7,3.6,2.7,5.9
			c0,4.2-2.2,5.9-6.3,6.2l5.5,9.7H953.4z M954.7,691.6c0-3.1-3.2-3.1-5.4-3.1h-5.5v6.5h6.8C953,695,954.7,694.4,954.7,691.6z"/>
	</g>
</g>
</svg>
